# xmcd
#
# Track frame offsets:
#	150
#	13802
#	33431
#	49588
#	62998
#	84660
#	100904
#	114079
#	130546
#	148465
#	170492
#
# Disc length: 2498 seconds
#
# Revision: 1
# Processed by: cddbd v1.5.1PL0 Copyright (c) Steve Scherf et al.
# Submitted via: CDex 1.50Beta5
#
DISCID=9309c00b
DTITLE=矢井田瞳 - Candlize
DYEAR=2001
DGENRE=Rock
TTITLE0=キャンドル
TTITLE1=Buzzstyle
TTITLE2=Look Back Again
TTITLE3=Not Still Over
TTITLE4=Over The Distance(Album Version)
TTITLE5=I’m Here Saying Nothing(Album Version)
TTITLE6=空の作り方
TTITLE7=贅沢な世界
TTITLE8=手と涙
TTITLE9=Life’s Like A Love
TTITLE10=Maze
EXTD=
EXTT0=
EXTT1=
EXTT2=
EXTT3=
EXTT4=
EXTT5=
EXTT6=
EXTT7=
EXTT8=
EXTT9=
EXTT10=
PLAYORDER=
